<svg preserveAspectRatio="none" width="100%" height="100%" overflow="visible" style="display: block;" viewBox="0 0 18.3746 18.3745" fill="none" xmlns="http://www.w3.org/2000/svg">
<path id="asset" fill-rule="evenodd" clip-rule="evenodd" d="M8.55023 0.126681C8.95812 -0.0422729 9.41636 -0.0421812 9.82428 0.126681L15.1435 2.32999C15.5515 2.49899 15.8756 2.82305 16.0446 3.23105L18.2479 8.55027C18.4168 8.95821 18.4168 9.41638 18.2479 9.82431L16.0446 15.1435C15.8755 15.5514 15.5514 15.8756 15.1435 16.0446L9.82428 18.2479C9.41641 18.4167 8.95806 18.4168 8.55023 18.2479L3.23102 16.0446C2.82314 15.8756 2.49894 15.5514 2.32996 15.1435L0.126649 9.82431C-0.0422832 9.41647 -0.0421492 8.95814 0.126649 8.55027L2.32996 3.23105C2.4989 2.82318 2.82321 2.49904 3.23102 2.32999L8.55023 0.126681ZM12.9043 5.43564C12.6217 5.18826 12.1897 5.22808 11.9571 5.5228L8.08496 10.437C8.00713 10.5357 7.85712 10.5367 7.77734 10.4395L6.43536 8.80533C6.21242 8.53375 5.8153 8.48541 5.5343 8.69638L5.00494 9.095C4.70883 9.31733 4.65449 9.74021 4.88574 10.0294L7.08777 12.7826C7.26577 13.0196 7.54135 13.1635 7.83759 13.1748C8.13394 13.1859 8.42016 13.0633 8.6156 12.8402L13.4734 6.76737C13.6927 6.49321 13.658 6.09504 13.3939 5.86374L12.9043 5.43564Z" fill="var(--fill-0, #1A9BE5)"/>
</svg>
